<svg xmlns="http://www.w3.org/2000/svg" viewBox="0 0 32 32" width="32" height="32" aria-label="Neural Explorer"><line x1="6" y1="8" x2="16" y2="6" stroke="#E5E7EB" stroke-width="0.8"/><line x1="6" y1="8" x2="16" y2="13" stroke="#E5E7EB" stroke-width="0.8"/><line x1="6" y1="8" x2="16" y2="19" stroke="#E5E7EB" stroke-width="0.8"/><line x1="6" y1="8" x2="16" y2="26" stroke="#E5E7EB" stroke-width="0.8"/><line x1="6" y1="16" x2="16" y2="6" stroke="#E5E7EB" stroke-width="0.8"/><line x1="6" y1="16" x2="16" y2="13" stroke="#E5E7EB" stroke-width="0.8"/><line x1="6" y1="16" x2="16" y2="19" stroke="#E5E7EB" stroke-width="0.8"/><line x1="6" y1="16" x2="16" y2="26" stroke="#E5E7EB" stroke-width="0.8"/><line x1="6" y1="24" x2="16" y2="6" stroke="#E5E7EB" stroke-width="0.8"/><line x1="6" y1="24" x2="16" y2="13" stroke="#E5E7EB" stroke-width="0.8"/><line x1="6" y1="24" x2="16" y2="19" stroke="#E5E7EB" stroke-width="0.8"/><line x1="6" y1="24" x2="16" y2="26" stroke="#E5E7EB" stroke-width="0.8"/><line x1="16" y1="6" x2="26" y2="12" stroke="#E5E7EB" stroke-width="0.8"/><line x1="16" y1="6" x2="26" y2="20" stroke="#E5E7EB" stroke-width="0.8"/><line x1="16" y1="13" x2="26" y2="12" stroke="#E5E7EB" stroke-width="0.8"/><line x1="16" y1="13" x2="26" y2="20" stroke="#E5E7EB" stroke-width="0.8"/><line x1="16" y1="19" x2="26" y2="12" stroke="#E5E7EB" stroke-width="0.8"/><line x1="16" y1="19" x2="26" y2="20" stroke="#E5E7EB" stroke-width="0.8"/><line x1="16" y1="26" x2="26" y2="12" stroke="#E5E7EB" stroke-width="0.8"/><line x1="16" y1="26" x2="26" y2="20" stroke="#E5E7EB" stroke-width="0.8"/><circle cx="6" cy="8" r="2.2" fill="#6B46FF"/><circle cx="6" cy="16" r="2.2" fill="#6B46FF"/><circle cx="6" cy="24" r="2.2" fill="#6B46FF"/><circle cx="16" cy="6" r="2.2" fill="#6B46FF"/><circle cx="16" cy="13" r="2.2" fill="#6B46FF"/><circle cx="16" cy="19" r="2.2" fill="#6B46FF"/><circle cx="16" cy="26" r="2.2" fill="#6B46FF"/><circle cx="26" cy="12" r="2.2" fill="#6B46FF"/><circle cx="26" cy="20" r="2.2" fill="#6B46FF"/></svg>